<?xml version="1.0" encoding="UTF-8"?>
<svg xmlns="http://www.w3.org/2000/svg" version="1.1" width="100" height="100" viewBox="0 0 100 100"><rect x="0" y="0" width="100" height="100" fill="#ffffff"/><g transform="scale(3.03)"><g transform="translate(0,0)"><path fill-rule="evenodd" d="M8 0L8 2L10 2L10 4L8 4L8 10L11 10L11 11L12 11L12 10L11 10L11 8L13 8L13 10L14 10L14 9L16 9L16 7L17 7L17 6L18 6L18 9L19 9L19 10L18 10L18 11L17 11L17 12L16 12L16 10L15 10L15 14L13 14L13 13L14 13L14 11L13 11L13 12L11 12L11 13L12 13L12 15L11 15L11 16L13 16L13 18L15 18L15 22L13 22L13 21L14 21L14 19L13 19L13 20L11 20L11 19L12 19L12 18L11 18L11 17L8 17L8 16L10 16L10 15L8 15L8 16L6 16L6 15L7 15L7 14L8 14L8 13L9 13L9 14L10 14L10 11L8 11L8 12L5 12L5 14L3 14L3 13L2 13L2 11L0 11L0 13L2 13L2 14L3 14L3 15L4 15L4 16L6 16L6 17L5 17L5 18L4 18L4 17L2 17L2 16L1 16L1 15L0 15L0 16L1 16L1 17L0 17L0 18L3 18L3 19L0 19L0 21L1 21L1 22L0 22L0 23L2 23L2 24L0 24L0 25L3 25L3 24L5 24L5 23L4 23L4 21L5 21L5 22L6 22L6 23L7 23L7 22L6 22L6 21L12 21L12 23L10 23L10 22L8 22L8 26L9 26L9 27L8 27L8 28L9 28L9 29L10 29L10 31L11 31L11 32L13 32L13 33L16 33L16 32L17 32L17 31L18 31L18 33L21 33L21 32L22 32L22 30L20 30L20 32L19 32L19 31L18 31L18 30L19 30L19 29L20 29L20 27L19 27L19 28L18 28L18 26L19 26L19 25L20 25L20 26L21 26L21 27L22 27L22 26L23 26L23 25L24 25L24 28L23 28L23 29L25 29L25 30L24 30L24 31L23 31L23 33L27 33L27 32L26 32L26 31L27 31L27 29L29 29L29 32L28 32L28 33L29 33L29 32L30 32L30 33L31 33L31 32L32 32L32 33L33 33L33 30L32 30L32 28L33 28L33 26L32 26L32 28L30 28L30 27L31 27L31 26L30 26L30 25L33 25L33 23L32 23L32 22L33 22L33 20L32 20L32 21L31 21L31 18L32 18L32 17L33 17L33 16L32 16L32 17L31 17L31 16L30 16L30 15L32 15L32 13L33 13L33 12L32 12L32 13L31 13L31 12L30 12L30 13L29 13L29 12L28 12L28 11L31 11L31 10L30 10L30 9L29 9L29 8L25 8L25 4L23 4L23 3L24 3L24 2L23 2L23 1L25 1L25 0L23 0L23 1L22 1L22 0L21 0L21 1L20 1L20 3L21 3L21 4L18 4L18 0L17 0L17 2L16 2L16 0L15 0L15 2L16 2L16 4L17 4L17 5L16 5L16 7L15 7L15 6L14 6L14 7L15 7L15 8L13 8L13 6L12 6L12 4L11 4L11 3L13 3L13 5L15 5L15 4L14 4L14 0L11 0L11 1L9 1L9 0ZM11 1L11 2L12 2L12 1ZM21 1L21 3L22 3L22 1ZM9 5L9 8L10 8L10 6L11 6L11 7L12 7L12 6L11 6L11 5ZM18 5L18 6L19 6L19 7L20 7L20 9L21 9L21 10L20 10L20 13L21 13L21 14L20 14L20 17L19 17L19 18L18 18L18 17L15 17L15 18L18 18L18 19L16 19L16 20L18 20L18 21L17 21L17 22L18 22L18 25L17 25L17 24L16 24L16 22L15 22L15 24L16 24L16 25L17 25L17 26L18 26L18 25L19 25L19 18L20 18L20 21L21 21L21 22L20 22L20 25L21 25L21 26L22 26L22 25L23 25L23 24L24 24L24 23L22 23L22 21L23 21L23 22L26 22L26 21L27 21L27 22L28 22L28 23L27 23L27 24L31 24L31 21L30 21L30 18L31 18L31 17L30 17L30 18L29 18L29 15L28 15L28 16L27 16L27 15L26 15L26 14L29 14L29 13L28 13L28 12L27 12L27 11L28 11L28 10L29 10L29 9L27 9L27 11L26 11L26 9L25 9L25 8L24 8L24 5L23 5L23 7L22 7L22 5L21 5L21 7L20 7L20 6L19 6L19 5ZM0 8L0 10L2 10L2 9L3 9L3 11L7 11L7 10L6 10L6 9L7 9L7 8L5 8L5 9L3 9L3 8ZM21 8L21 9L22 9L22 10L21 10L21 11L22 11L22 12L21 12L21 13L22 13L22 14L21 14L21 15L22 15L22 16L21 16L21 17L20 17L20 18L21 18L21 19L22 19L22 18L23 18L23 19L24 19L24 20L23 20L23 21L24 21L24 20L25 20L25 18L26 18L26 19L27 19L27 21L29 21L29 20L28 20L28 19L29 19L29 18L26 18L26 17L27 17L27 16L26 16L26 17L25 17L25 16L24 16L24 15L25 15L25 14L26 14L26 13L24 13L24 12L25 12L25 10L24 10L24 12L23 12L23 11L22 11L22 10L23 10L23 9L24 9L24 8ZM31 8L31 9L33 9L33 8ZM18 11L18 13L16 13L16 14L15 14L15 15L16 15L16 16L19 16L19 14L18 14L18 13L19 13L19 11ZM6 13L6 14L7 14L7 13ZM23 13L23 14L22 14L22 15L24 15L24 13ZM30 13L30 14L31 14L31 13ZM17 14L17 15L18 15L18 14ZM13 15L13 16L14 16L14 15ZM22 16L22 17L21 17L21 18L22 18L22 17L23 17L23 18L24 18L24 17L23 17L23 16ZM6 17L6 18L7 18L7 19L4 19L4 20L3 20L3 21L4 21L4 20L5 20L5 21L6 21L6 20L9 20L9 19L11 19L11 18L9 18L9 19L8 19L8 18L7 18L7 17ZM1 20L1 21L2 21L2 20ZM21 20L21 21L22 21L22 20ZM2 22L2 23L3 23L3 22ZM29 22L29 23L30 23L30 22ZM9 23L9 24L10 24L10 23ZM13 23L13 24L11 24L11 26L12 26L12 27L10 27L10 28L13 28L13 27L14 27L14 29L13 29L13 30L15 30L15 32L16 32L16 30L18 30L18 29L17 29L17 28L16 28L16 26L13 26L13 24L14 24L14 23ZM21 23L21 25L22 25L22 23ZM25 23L25 24L26 24L26 23ZM6 24L6 25L7 25L7 24ZM9 25L9 26L10 26L10 25ZM25 25L25 28L28 28L28 25ZM26 26L26 27L27 27L27 26ZM15 28L15 29L16 29L16 28ZM21 28L21 29L22 29L22 28ZM11 29L11 31L12 31L12 29ZM30 29L30 30L31 30L31 29ZM8 30L8 33L9 33L9 30ZM25 30L25 31L24 31L24 32L25 32L25 31L26 31L26 30ZM13 31L13 32L14 32L14 31ZM30 31L30 32L31 32L31 31ZM0 0L0 7L7 7L7 0ZM1 1L1 6L6 6L6 1ZM2 2L2 5L5 5L5 2ZM26 0L26 7L33 7L33 0ZM27 1L27 6L32 6L32 1ZM28 2L28 5L31 5L31 2ZM0 26L0 33L7 33L7 26ZM1 27L1 32L6 32L6 27ZM2 28L2 31L5 31L5 28Z" fill="#000000"/></g></g></svg>
