<?xml version="1.0" encoding="UTF-8"?>
<svg xmlns="http://www.w3.org/2000/svg" version="1.1" width="100" height="100" viewBox="0 0 100 100"><rect x="0" y="0" width="100" height="100" fill="#ffffff"/><g transform="scale(3.03)"><g transform="translate(0,0)"><path fill-rule="evenodd" d="M8 0L8 2L10 2L10 4L8 4L8 10L11 10L11 11L12 11L12 10L11 10L11 8L13 8L13 9L14 9L14 11L15 11L15 12L11 12L11 13L12 13L12 15L11 15L11 16L10 16L10 17L9 17L9 16L6 16L6 15L8 15L8 14L9 14L9 15L10 15L10 11L8 11L8 13L7 13L7 12L4 12L4 11L5 11L5 9L7 9L7 8L5 8L5 9L3 9L3 8L0 8L0 10L1 10L1 9L3 9L3 11L0 11L0 12L2 12L2 13L3 13L3 12L4 12L4 13L5 13L5 16L6 16L6 17L7 17L7 18L6 18L6 19L5 19L5 18L4 18L4 19L3 19L3 20L4 20L4 21L3 21L3 22L2 22L2 19L1 19L1 22L0 22L0 23L4 23L4 24L5 24L5 23L7 23L7 24L6 24L6 25L7 25L7 24L8 24L8 26L9 26L9 24L10 24L10 23L11 23L11 24L12 24L12 25L13 25L13 20L14 20L14 21L15 21L15 22L14 22L14 25L15 25L15 26L14 26L14 31L13 31L13 33L14 33L14 31L15 31L15 29L16 29L16 28L17 28L17 29L18 29L18 30L16 30L16 32L15 32L15 33L16 33L16 32L17 32L17 31L18 31L18 33L21 33L21 32L22 32L22 30L20 30L20 32L19 32L19 31L18 31L18 30L19 30L19 29L20 29L20 27L19 27L19 28L18 28L18 26L19 26L19 25L20 25L20 26L21 26L21 27L22 27L22 26L23 26L23 25L24 25L24 28L23 28L23 29L25 29L25 30L24 30L24 31L23 31L23 33L27 33L27 32L26 32L26 31L27 31L27 29L29 29L29 32L28 32L28 33L29 33L29 32L30 32L30 33L31 33L31 32L32 32L32 33L33 33L33 30L32 30L32 28L33 28L33 26L32 26L32 28L30 28L30 27L31 27L31 26L30 26L30 25L31 25L31 24L27 24L27 23L28 23L28 22L27 22L27 21L29 21L29 20L28 20L28 19L29 19L29 18L30 18L30 21L31 21L31 23L33 23L33 20L32 20L32 21L31 21L31 18L32 18L32 17L33 17L33 16L32 16L32 17L31 17L31 16L30 16L30 15L32 15L32 13L33 13L33 12L32 12L32 13L31 13L31 12L30 12L30 13L29 13L29 12L28 12L28 11L31 11L31 10L30 10L30 9L29 9L29 8L25 8L25 4L23 4L23 3L24 3L24 2L23 2L23 1L25 1L25 0L23 0L23 1L22 1L22 0L21 0L21 1L20 1L20 3L21 3L21 4L18 4L18 0L17 0L17 1L16 1L16 0L11 0L11 1L9 1L9 0ZM11 1L11 2L12 2L12 1ZM14 1L14 2L15 2L15 3L11 3L11 4L12 4L12 6L11 6L11 5L9 5L9 8L10 8L10 6L11 6L11 7L12 7L12 6L13 6L13 7L14 7L14 9L15 9L15 10L16 10L16 12L17 12L17 11L18 11L18 13L16 13L16 16L19 16L19 14L18 14L18 13L19 13L19 11L18 11L18 10L19 10L19 9L18 9L18 6L19 6L19 7L20 7L20 9L21 9L21 10L20 10L20 13L21 13L21 14L20 14L20 17L19 17L19 18L18 18L18 17L15 17L15 18L18 18L18 19L16 19L16 20L18 20L18 21L17 21L17 22L18 22L18 25L17 25L17 24L16 24L16 22L15 22L15 24L16 24L16 25L17 25L17 26L18 26L18 25L19 25L19 18L20 18L20 21L21 21L21 22L20 22L20 25L21 25L21 26L22 26L22 25L23 25L23 24L24 24L24 23L22 23L22 21L23 21L23 22L26 22L26 21L27 21L27 19L26 19L26 18L29 18L29 15L28 15L28 16L27 16L27 15L26 15L26 14L29 14L29 13L28 13L28 12L27 12L27 11L28 11L28 10L29 10L29 9L27 9L27 11L26 11L26 9L25 9L25 8L24 8L24 5L23 5L23 7L22 7L22 5L21 5L21 7L20 7L20 6L19 6L19 5L18 5L18 6L17 6L17 7L16 7L16 4L17 4L17 3L16 3L16 1ZM21 1L21 3L22 3L22 1ZM13 4L13 6L14 6L14 7L15 7L15 9L17 9L17 8L16 8L16 7L15 7L15 6L14 6L14 5L15 5L15 4ZM21 8L21 9L22 9L22 10L21 10L21 11L22 11L22 12L21 12L21 13L22 13L22 14L21 14L21 15L22 15L22 16L21 16L21 17L20 17L20 18L21 18L21 19L22 19L22 18L23 18L23 19L24 19L24 20L23 20L23 21L24 21L24 20L25 20L25 18L26 18L26 17L27 17L27 16L26 16L26 17L25 17L25 16L24 16L24 15L25 15L25 14L26 14L26 13L24 13L24 12L25 12L25 10L24 10L24 12L23 12L23 11L22 11L22 10L23 10L23 9L24 9L24 8ZM31 8L31 9L33 9L33 8ZM6 10L6 11L7 11L7 10ZM6 13L6 14L7 14L7 13ZM13 13L13 14L14 14L14 16L15 16L15 13ZM23 13L23 14L22 14L22 15L24 15L24 13ZM30 13L30 14L31 14L31 13ZM0 14L0 18L1 18L1 17L2 17L2 15L1 15L1 14ZM17 14L17 15L18 15L18 14ZM3 15L3 17L4 17L4 15ZM11 16L11 18L12 18L12 19L10 19L10 18L9 18L9 17L8 17L8 19L10 19L10 21L11 21L11 23L12 23L12 21L11 21L11 20L13 20L13 19L14 19L14 17L13 17L13 16ZM22 16L22 17L21 17L21 18L22 18L22 17L23 17L23 18L24 18L24 17L23 17L23 16ZM30 17L30 18L31 18L31 17ZM4 19L4 20L5 20L5 21L4 21L4 22L5 22L5 21L6 21L6 22L7 22L7 23L8 23L8 21L9 21L9 20L8 20L8 21L6 21L6 20L7 20L7 19L6 19L6 20L5 20L5 19ZM21 20L21 21L22 21L22 20ZM9 22L9 23L10 23L10 22ZM29 22L29 23L30 23L30 22ZM21 23L21 25L22 25L22 23ZM25 23L25 24L26 24L26 23ZM0 24L0 25L3 25L3 24ZM32 24L32 25L33 25L33 24ZM10 25L10 27L8 27L8 28L10 28L10 27L13 27L13 26L11 26L11 25ZM25 25L25 28L28 28L28 25ZM15 26L15 28L16 28L16 26ZM26 26L26 27L27 27L27 26ZM11 28L11 29L10 29L10 30L8 30L8 33L9 33L9 31L11 31L11 32L10 32L10 33L12 33L12 28ZM21 28L21 29L22 29L22 28ZM30 29L30 30L31 30L31 29ZM25 30L25 31L24 31L24 32L25 32L25 31L26 31L26 30ZM30 31L30 32L31 32L31 31ZM0 0L0 7L7 7L7 0ZM1 1L1 6L6 6L6 1ZM2 2L2 5L5 5L5 2ZM26 0L26 7L33 7L33 0ZM27 1L27 6L32 6L32 1ZM28 2L28 5L31 5L31 2ZM0 26L0 33L7 33L7 26ZM1 27L1 32L6 32L6 27ZM2 28L2 31L5 31L5 28Z" fill="#000000"/></g></g></svg>
