<?xml version="1.0" encoding="UTF-8"?>
<svg xmlns="http://www.w3.org/2000/svg" version="1.1" width="100" height="100" viewBox="0 0 100 100"><rect x="0" y="0" width="100" height="100" fill="#ffffff"/><g transform="scale(3.03)"><g transform="translate(0,0)"><path fill-rule="evenodd" d="M9 0L9 1L8 1L8 2L9 2L9 3L8 3L8 4L10 4L10 7L11 7L11 4L12 4L12 5L13 5L13 6L12 6L12 9L13 9L13 8L14 8L14 9L15 9L15 10L17 10L17 9L16 9L16 7L17 7L17 8L18 8L18 9L19 9L19 6L20 6L20 8L21 8L21 9L20 9L20 10L23 10L23 11L22 11L22 12L21 12L21 11L20 11L20 13L21 13L21 14L23 14L23 12L24 12L24 11L25 11L25 10L26 10L26 8L25 8L25 5L22 5L22 4L23 4L23 3L22 3L22 4L21 4L21 2L23 2L23 1L22 1L22 0L21 0L21 2L20 2L20 1L19 1L19 2L20 2L20 5L19 5L19 6L18 6L18 7L17 7L17 5L16 5L16 4L19 4L19 3L17 3L17 2L16 2L16 4L12 4L12 2L13 2L13 1L11 1L11 2L10 2L10 0ZM15 0L15 1L17 1L17 0ZM24 1L24 2L25 2L25 1ZM14 2L14 3L15 3L15 2ZM10 3L10 4L11 4L11 3ZM8 5L8 7L9 7L9 5ZM20 5L20 6L21 6L21 8L22 8L22 9L24 9L24 10L25 10L25 9L24 9L24 8L23 8L23 7L24 7L24 6L23 6L23 7L22 7L22 6L21 6L21 5ZM13 6L13 7L14 7L14 8L15 8L15 7L16 7L16 6L15 6L15 7L14 7L14 6ZM0 8L0 10L1 10L1 9L2 9L2 11L3 11L3 10L4 10L4 12L3 12L3 13L2 13L2 12L1 12L1 11L0 11L0 12L1 12L1 14L0 14L0 15L1 15L1 17L0 17L0 19L1 19L1 18L2 18L2 16L4 16L4 15L5 15L5 14L6 14L6 15L7 15L7 14L8 14L8 16L6 16L6 17L3 17L3 19L4 19L4 20L2 20L2 21L3 21L3 22L2 22L2 23L3 23L3 24L4 24L4 25L8 25L8 27L10 27L10 29L12 29L12 30L13 30L13 31L12 31L12 33L13 33L13 32L14 32L14 33L17 33L17 32L14 32L14 31L15 31L15 30L17 30L17 31L19 31L19 32L20 32L20 33L23 33L23 31L25 31L25 32L24 32L24 33L27 33L27 32L29 32L29 33L32 33L32 32L33 32L33 31L30 31L30 30L32 30L32 29L33 29L33 27L32 27L32 26L31 26L31 24L33 24L33 23L32 23L32 22L31 22L31 21L32 21L32 18L33 18L33 17L32 17L32 16L33 16L33 14L32 14L32 12L33 12L33 10L31 10L31 9L32 9L32 8L31 8L31 9L30 9L30 8L29 8L29 10L27 10L27 11L26 11L26 12L25 12L25 13L24 13L24 15L20 15L20 18L19 18L19 17L18 17L18 16L19 16L19 15L17 15L17 14L16 14L16 13L18 13L18 12L19 12L19 11L16 11L16 13L12 13L12 11L13 11L13 10L11 10L11 11L10 11L10 9L11 9L11 8L6 8L6 9L8 9L8 11L7 11L7 10L6 10L6 11L5 11L5 8ZM27 8L27 9L28 9L28 8ZM29 10L29 11L27 11L27 12L28 12L28 14L27 14L27 13L26 13L26 15L24 15L24 16L23 16L23 18L20 18L20 20L19 20L19 22L21 22L21 23L20 23L20 24L19 24L19 23L18 23L18 24L19 24L19 27L15 27L15 26L18 26L18 25L14 25L14 24L15 24L15 23L14 23L14 24L13 24L13 25L12 25L12 23L13 23L13 22L12 22L12 21L16 21L16 24L17 24L17 22L18 22L18 19L17 19L17 18L18 18L18 17L17 17L17 15L16 15L16 17L17 17L17 18L15 18L15 17L14 17L14 16L15 16L15 15L14 15L14 16L13 16L13 17L12 17L12 15L13 15L13 14L12 14L12 13L11 13L11 12L10 12L10 13L9 13L9 15L10 15L10 16L11 16L11 18L10 18L10 17L9 17L9 16L8 16L8 20L9 20L9 22L8 22L8 21L6 21L6 20L7 20L7 19L5 19L5 18L4 18L4 19L5 19L5 21L4 21L4 22L3 22L3 23L4 23L4 24L5 24L5 23L6 23L6 24L7 24L7 23L6 23L6 22L8 22L8 23L10 23L10 24L11 24L11 26L10 26L10 27L11 27L11 26L13 26L13 27L12 27L12 29L15 29L15 28L17 28L17 30L19 30L19 31L20 31L20 32L21 32L21 31L23 31L23 30L25 30L25 31L26 31L26 32L27 32L27 31L26 31L26 30L28 30L28 31L29 31L29 30L28 30L28 29L23 29L23 28L22 28L22 27L23 27L23 24L25 24L25 23L24 23L24 22L21 22L21 21L20 21L20 20L21 20L21 19L25 19L25 20L24 20L24 21L26 21L26 23L27 23L27 24L29 24L29 23L30 23L30 24L31 24L31 22L30 22L30 21L31 21L31 20L30 20L30 19L31 19L31 18L30 18L30 19L28 19L28 18L29 18L29 15L31 15L31 16L32 16L32 14L29 14L29 11L30 11L30 12L32 12L32 11L31 11L31 10ZM6 11L6 12L5 12L5 13L6 13L6 14L7 14L7 13L6 13L6 12L7 12L7 11ZM14 11L14 12L15 12L15 11ZM3 13L3 14L2 14L2 15L4 15L4 13ZM10 13L10 15L11 15L11 13ZM28 14L28 15L29 15L29 14ZM21 16L21 17L22 17L22 16ZM25 16L25 17L24 17L24 18L25 18L25 19L26 19L26 20L27 20L27 21L28 21L28 22L27 22L27 23L29 23L29 21L28 21L28 20L27 20L27 19L26 19L26 18L27 18L27 17L26 17L26 16ZM6 17L6 18L7 18L7 17ZM25 17L25 18L26 18L26 17ZM9 18L9 19L10 19L10 18ZM11 18L11 21L10 21L10 22L11 22L11 21L12 21L12 19L13 19L13 18ZM14 19L14 20L15 20L15 19ZM16 19L16 20L17 20L17 19ZM0 21L0 25L1 25L1 21ZM4 22L4 23L5 23L5 22ZM21 23L21 24L20 24L20 27L19 27L19 28L18 28L18 29L19 29L19 30L20 30L20 31L21 31L21 30L22 30L22 28L20 28L20 27L21 27L21 26L22 26L22 24L23 24L23 23ZM8 24L8 25L9 25L9 24ZM25 25L25 28L28 28L28 25ZM26 26L26 27L27 27L27 26ZM14 27L14 28L15 28L15 27ZM29 27L29 28L30 28L30 29L32 29L32 27L31 27L31 28L30 28L30 27ZM8 28L8 33L10 33L10 31L11 31L11 30L9 30L9 28ZM19 28L19 29L20 29L20 30L21 30L21 29L20 29L20 28ZM0 0L0 7L7 7L7 0ZM1 1L1 6L6 6L6 1ZM2 2L2 5L5 5L5 2ZM26 0L26 7L33 7L33 0ZM27 1L27 6L32 6L32 1ZM28 2L28 5L31 5L31 2ZM0 26L0 33L7 33L7 26ZM1 27L1 32L6 32L6 27ZM2 28L2 31L5 31L5 28Z" fill="#000000"/></g></g></svg>
