<?xml version="1.0" encoding="UTF-8"?>
<svg xmlns="http://www.w3.org/2000/svg" version="1.1" width="100" height="100" viewBox="0 0 100 100"><rect x="0" y="0" width="100" height="100" fill="#ffffff"/><g transform="scale(3.03)"><g transform="translate(0,0)"><path fill-rule="evenodd" d="M8 0L8 2L9 2L9 3L10 3L10 2L9 2L9 1L11 1L11 2L12 2L12 0ZM13 0L13 3L11 3L11 5L9 5L9 4L8 4L8 9L10 9L10 7L11 7L11 5L12 5L12 7L13 7L13 8L11 8L11 9L12 9L12 11L11 11L11 10L9 10L9 11L10 11L10 12L9 12L9 13L8 13L8 10L6 10L6 9L7 9L7 8L5 8L5 9L4 9L4 10L3 10L3 8L0 8L0 9L1 9L1 10L0 10L0 11L1 11L1 12L0 12L0 13L1 13L1 14L0 14L0 18L1 18L1 19L3 19L3 20L1 20L1 21L2 21L2 22L0 22L0 23L2 23L2 24L0 24L0 25L2 25L2 24L3 24L3 25L4 25L4 22L5 22L5 21L4 21L4 18L3 18L3 17L4 17L4 16L3 16L3 15L2 15L2 14L4 14L4 15L5 15L5 16L6 16L6 17L7 17L7 16L6 16L6 15L8 15L8 16L9 16L9 17L10 17L10 16L11 16L11 17L12 17L12 19L11 19L11 20L9 20L9 19L10 19L10 18L9 18L9 19L7 19L7 18L5 18L5 20L6 20L6 21L7 21L7 22L6 22L6 23L7 23L7 24L6 24L6 25L7 25L7 24L10 24L10 25L12 25L12 27L11 27L11 26L9 26L9 25L8 25L8 26L9 26L9 27L8 27L8 28L9 28L9 29L10 29L10 30L11 30L11 31L9 31L9 30L8 30L8 33L12 33L12 32L11 32L11 31L13 31L13 30L11 30L11 28L12 28L12 29L14 29L14 33L16 33L16 32L17 32L17 31L18 31L18 33L21 33L21 32L22 32L22 30L20 30L20 32L19 32L19 31L18 31L18 30L19 30L19 29L20 29L20 27L19 27L19 28L18 28L18 26L19 26L19 25L20 25L20 26L21 26L21 27L22 27L22 26L23 26L23 25L24 25L24 28L23 28L23 29L25 29L25 30L24 30L24 31L23 31L23 33L27 33L27 32L26 32L26 31L27 31L27 29L29 29L29 32L28 32L28 33L29 33L29 32L30 32L30 33L31 33L31 32L32 32L32 33L33 33L33 30L32 30L32 28L33 28L33 26L32 26L32 28L30 28L30 27L31 27L31 26L30 26L30 25L31 25L31 24L27 24L27 23L28 23L28 22L27 22L27 21L29 21L29 20L28 20L28 19L29 19L29 18L30 18L30 21L31 21L31 18L32 18L32 17L33 17L33 16L32 16L32 17L31 17L31 16L30 16L30 15L32 15L32 13L33 13L33 12L32 12L32 13L31 13L31 12L30 12L30 13L29 13L29 12L28 12L28 11L31 11L31 10L30 10L30 9L29 9L29 8L25 8L25 4L23 4L23 3L24 3L24 2L23 2L23 1L25 1L25 0L23 0L23 1L22 1L22 0L21 0L21 1L20 1L20 3L21 3L21 4L18 4L18 0L17 0L17 1L16 1L16 0ZM14 1L14 2L15 2L15 3L13 3L13 4L15 4L15 5L14 5L14 6L13 6L13 7L14 7L14 9L13 9L13 12L11 12L11 14L10 14L10 13L9 13L9 14L8 14L8 13L6 13L6 12L7 12L7 11L5 11L5 10L4 10L4 14L5 14L5 15L6 15L6 14L8 14L8 15L9 15L9 16L10 16L10 15L11 15L11 16L13 16L13 14L14 14L14 16L15 16L15 13L13 13L13 12L15 12L15 11L14 11L14 9L15 9L15 10L16 10L16 12L17 12L17 11L18 11L18 13L16 13L16 16L19 16L19 14L18 14L18 13L19 13L19 11L18 11L18 10L19 10L19 9L18 9L18 6L19 6L19 7L20 7L20 9L21 9L21 10L20 10L20 13L21 13L21 14L20 14L20 17L19 17L19 18L18 18L18 17L15 17L15 18L18 18L18 19L16 19L16 20L18 20L18 21L17 21L17 22L18 22L18 25L17 25L17 24L16 24L16 22L15 22L15 21L14 21L14 20L11 20L11 22L10 22L10 21L9 21L9 20L7 20L7 19L6 19L6 20L7 20L7 21L9 21L9 23L11 23L11 24L13 24L13 27L14 27L14 29L15 29L15 32L16 32L16 30L18 30L18 29L17 29L17 28L16 28L16 26L15 26L15 24L16 24L16 25L17 25L17 26L18 26L18 25L19 25L19 18L20 18L20 21L21 21L21 22L20 22L20 25L21 25L21 26L22 26L22 25L23 25L23 24L24 24L24 23L22 23L22 21L23 21L23 22L26 22L26 21L27 21L27 19L26 19L26 18L29 18L29 15L28 15L28 16L27 16L27 15L26 15L26 14L29 14L29 13L28 13L28 12L27 12L27 11L28 11L28 10L29 10L29 9L27 9L27 11L26 11L26 9L25 9L25 8L24 8L24 5L23 5L23 7L22 7L22 5L21 5L21 7L20 7L20 6L19 6L19 5L18 5L18 6L17 6L17 7L16 7L16 4L17 4L17 3L16 3L16 1ZM21 1L21 3L22 3L22 1ZM9 6L9 7L10 7L10 6ZM14 6L14 7L15 7L15 9L17 9L17 8L16 8L16 7L15 7L15 6ZM21 8L21 9L22 9L22 10L21 10L21 11L22 11L22 12L21 12L21 13L22 13L22 14L21 14L21 15L22 15L22 16L21 16L21 17L20 17L20 18L21 18L21 19L22 19L22 18L23 18L23 19L24 19L24 20L23 20L23 21L24 21L24 20L25 20L25 18L26 18L26 17L27 17L27 16L26 16L26 17L25 17L25 16L24 16L24 15L25 15L25 14L26 14L26 13L24 13L24 12L25 12L25 10L24 10L24 12L23 12L23 11L22 11L22 10L23 10L23 9L24 9L24 8ZM31 8L31 9L33 9L33 8ZM1 12L1 13L2 13L2 12ZM5 13L5 14L6 14L6 13ZM23 13L23 14L22 14L22 15L24 15L24 13ZM30 13L30 14L31 14L31 13ZM9 14L9 15L10 15L10 14ZM11 14L11 15L12 15L12 14ZM17 14L17 15L18 15L18 14ZM1 15L1 18L2 18L2 17L3 17L3 16L2 16L2 15ZM22 16L22 17L21 17L21 18L22 18L22 17L23 17L23 18L24 18L24 17L23 17L23 16ZM13 17L13 19L14 19L14 17ZM30 17L30 18L31 18L31 17ZM21 20L21 21L22 21L22 20ZM32 20L32 22L31 22L31 23L33 23L33 20ZM2 22L2 23L3 23L3 22ZM7 22L7 23L8 23L8 22ZM11 22L11 23L12 23L12 22ZM14 22L14 24L15 24L15 22ZM29 22L29 23L30 23L30 22ZM21 23L21 25L22 25L22 23ZM25 23L25 24L26 24L26 23ZM32 24L32 25L33 25L33 24ZM25 25L25 28L28 28L28 25ZM14 26L14 27L15 27L15 26ZM26 26L26 27L27 27L27 26ZM9 27L9 28L11 28L11 27ZM15 28L15 29L16 29L16 28ZM21 28L21 29L22 29L22 28ZM30 29L30 30L31 30L31 29ZM25 30L25 31L24 31L24 32L25 32L25 31L26 31L26 30ZM30 31L30 32L31 32L31 31ZM0 0L0 7L7 7L7 0ZM1 1L1 6L6 6L6 1ZM2 2L2 5L5 5L5 2ZM26 0L26 7L33 7L33 0ZM27 1L27 6L32 6L32 1ZM28 2L28 5L31 5L31 2ZM0 26L0 33L7 33L7 26ZM1 27L1 32L6 32L6 27ZM2 28L2 31L5 31L5 28Z" fill="#000000"/></g></g></svg>
