<?xml version="1.0" encoding="UTF-8"?>
<svg xmlns="http://www.w3.org/2000/svg" version="1.1" width="100" height="100" viewBox="0 0 100 100"><rect x="0" y="0" width="100" height="100" fill="#ffffff"/><g transform="scale(3.03)"><g transform="translate(0,0)"><path fill-rule="evenodd" d="M8 0L8 2L10 2L10 4L8 4L8 9L7 9L7 8L5 8L5 9L4 9L4 10L6 10L6 11L7 11L7 10L8 10L8 12L9 12L9 14L6 14L6 13L7 13L7 12L6 12L6 13L5 13L5 12L4 12L4 13L1 13L1 14L0 14L0 15L1 15L1 14L2 14L2 15L3 15L3 16L5 16L5 17L2 17L2 16L0 16L0 21L3 21L3 18L5 18L5 17L8 17L8 18L9 18L9 19L7 19L7 18L6 18L6 19L4 19L4 20L5 20L5 21L9 21L9 22L10 22L10 23L9 23L9 24L8 24L8 26L9 26L9 27L8 27L8 28L9 28L9 27L10 27L10 29L9 29L9 30L8 30L8 33L10 33L10 32L13 32L13 33L22 33L22 32L23 32L23 33L25 33L25 32L26 32L26 30L25 30L25 29L27 29L27 31L28 31L28 33L29 33L29 32L30 32L30 33L31 33L31 32L32 32L32 33L33 33L33 30L32 30L32 28L33 28L33 26L32 26L32 28L31 28L31 32L30 32L30 31L29 31L29 30L30 30L30 29L29 29L29 26L30 26L30 27L31 27L31 26L30 26L30 25L33 25L33 23L30 23L30 22L29 22L29 21L30 21L30 20L28 20L28 19L27 19L27 18L28 18L28 17L29 17L29 18L30 18L30 17L31 17L31 18L32 18L32 19L31 19L31 20L32 20L32 21L31 21L31 22L32 22L32 21L33 21L33 20L32 20L32 19L33 19L33 15L32 15L32 13L33 13L33 11L32 11L32 13L31 13L31 11L30 11L30 9L29 9L29 8L24 8L24 7L25 7L25 6L24 6L24 4L25 4L25 3L24 3L24 2L23 2L23 1L24 1L24 0L21 0L21 1L22 1L22 3L21 3L21 5L22 5L22 7L21 7L21 6L20 6L20 8L19 8L19 5L20 5L20 4L19 4L19 5L18 5L18 4L16 4L16 5L15 5L15 4L13 4L13 6L12 6L12 4L11 4L11 3L13 3L13 2L14 2L14 1L15 1L15 0L11 0L11 1L9 1L9 0ZM16 0L16 3L17 3L17 1L18 1L18 3L20 3L20 0L19 0L19 1L18 1L18 0ZM11 1L11 2L12 2L12 1ZM23 3L23 4L24 4L24 3ZM9 5L9 8L10 8L10 6L11 6L11 7L12 7L12 6L11 6L11 5ZM14 5L14 6L13 6L13 7L14 7L14 9L13 9L13 8L11 8L11 10L9 10L9 11L10 11L10 14L9 14L9 15L6 15L6 16L9 16L9 15L10 15L10 16L11 16L11 18L12 18L12 19L10 19L10 20L13 20L13 19L14 19L14 21L13 21L13 22L17 22L17 23L16 23L16 24L19 24L19 23L18 23L18 22L20 22L20 24L21 24L21 23L22 23L22 22L23 22L23 21L24 21L24 22L25 22L25 23L26 23L26 22L27 22L27 21L26 21L26 22L25 22L25 20L26 20L26 16L27 16L27 17L28 17L28 16L29 16L29 17L30 17L30 16L31 16L31 17L32 17L32 15L31 15L31 13L30 13L30 12L29 12L29 9L28 9L28 12L29 12L29 13L27 13L27 12L26 12L26 11L25 11L25 12L24 12L24 13L23 13L23 12L22 12L22 13L21 13L21 12L20 12L20 11L19 11L19 10L21 10L21 11L22 11L22 9L21 9L21 8L20 8L20 9L19 9L19 10L18 10L18 5L17 5L17 7L16 7L16 6L15 6L15 5ZM14 6L14 7L15 7L15 9L14 9L14 13L18 13L18 14L13 14L13 12L11 12L11 13L12 13L12 15L11 15L11 16L13 16L13 18L14 18L14 17L16 17L16 19L15 19L15 21L17 21L17 20L18 20L18 18L19 18L19 21L20 21L20 22L21 22L21 21L23 21L23 20L24 20L24 18L22 18L22 20L21 20L21 21L20 21L20 18L19 18L19 17L21 17L21 16L20 16L20 15L21 15L21 13L20 13L20 12L18 12L18 10L16 10L16 12L15 12L15 9L16 9L16 7L15 7L15 6ZM23 6L23 7L22 7L22 8L23 8L23 7L24 7L24 6ZM0 8L0 11L1 11L1 10L2 10L2 9L3 9L3 8ZM31 8L31 9L33 9L33 8ZM6 9L6 10L7 10L7 9ZM26 9L26 10L27 10L27 9ZM11 10L11 11L12 11L12 10ZM23 10L23 11L24 11L24 10ZM2 11L2 12L3 12L3 11ZM19 13L19 14L18 14L18 16L17 16L17 15L16 15L16 17L17 17L17 18L18 18L18 17L19 17L19 15L20 15L20 13ZM22 13L22 16L23 16L23 17L24 17L24 16L25 16L25 14L26 14L26 15L27 15L27 16L28 16L28 15L27 15L27 14L26 14L26 13L25 13L25 14L23 14L23 13ZM29 13L29 16L30 16L30 13ZM4 14L4 15L5 15L5 14ZM13 15L13 16L15 16L15 15ZM1 17L1 18L2 18L2 17ZM9 17L9 18L10 18L10 17ZM1 19L1 20L2 20L2 19ZM6 19L6 20L7 20L7 19ZM16 19L16 20L17 20L17 19ZM10 21L10 22L11 22L11 23L10 23L10 24L9 24L9 26L12 26L12 27L11 27L11 28L13 28L13 27L14 27L14 29L13 29L13 30L15 30L15 26L16 26L16 28L17 28L17 29L16 29L16 32L18 32L18 30L19 30L19 31L20 31L20 32L22 32L22 30L23 30L23 32L24 32L24 28L22 28L22 25L21 25L21 26L20 26L20 28L21 28L21 29L18 29L18 26L19 26L19 25L17 25L17 26L16 26L16 25L15 25L15 26L13 26L13 24L14 24L14 23L13 23L13 24L11 24L11 23L12 23L12 21ZM0 22L0 23L2 23L2 24L0 24L0 25L2 25L2 24L3 24L3 23L4 23L4 22ZM6 22L6 23L5 23L5 24L4 24L4 25L7 25L7 24L6 24L6 23L8 23L8 22ZM28 22L28 24L29 24L29 25L30 25L30 24L29 24L29 22ZM23 23L23 25L24 25L24 23ZM25 25L25 28L28 28L28 25ZM23 26L23 27L24 27L24 26ZM26 26L26 27L27 27L27 26ZM10 29L10 31L12 31L12 29ZM13 31L13 32L14 32L14 31ZM0 0L0 7L7 7L7 0ZM1 1L1 6L6 6L6 1ZM2 2L2 5L5 5L5 2ZM26 0L26 7L33 7L33 0ZM27 1L27 6L32 6L32 1ZM28 2L28 5L31 5L31 2ZM0 26L0 33L7 33L7 26ZM1 27L1 32L6 32L6 27ZM2 28L2 31L5 31L5 28Z" fill="#000000"/></g></g></svg>
