<?xml version="1.0" encoding="UTF-8"?>
<svg xmlns="http://www.w3.org/2000/svg" version="1.1" width="100" height="100" viewBox="0 0 100 100"><rect x="0" y="0" width="100" height="100" fill="#ffffff"/><g transform="scale(3.448)"><g transform="translate(0,0)"><path fill-rule="evenodd" d="M9 0L9 1L8 1L8 2L9 2L9 1L10 1L10 0ZM12 0L12 1L11 1L11 3L8 3L8 4L9 4L9 5L8 5L8 7L9 7L9 8L6 8L6 9L9 9L9 11L8 11L8 13L7 13L7 12L6 12L6 13L7 13L7 14L4 14L4 15L3 15L3 13L4 13L4 11L7 11L7 10L4 10L4 9L5 9L5 8L0 8L0 9L3 9L3 10L4 10L4 11L2 11L2 12L0 12L0 14L1 14L1 15L0 15L0 16L1 16L1 17L0 17L0 21L1 21L1 18L2 18L2 20L3 20L3 21L4 21L4 20L3 20L3 19L5 19L5 18L4 18L4 17L3 17L3 18L2 18L2 16L4 16L4 15L7 15L7 16L6 16L6 17L7 17L7 16L8 16L8 14L9 14L9 15L10 15L10 18L11 18L11 15L14 15L14 16L12 16L12 19L11 19L11 20L8 20L8 19L9 19L9 17L8 17L8 19L7 19L7 18L6 18L6 19L7 19L7 20L5 20L5 21L7 21L7 20L8 20L8 23L11 23L11 24L10 24L10 25L9 25L9 24L8 24L8 29L10 29L10 27L11 27L11 28L12 28L12 29L13 29L13 27L14 27L14 29L16 29L16 28L15 28L15 27L14 27L14 26L13 26L13 25L14 25L14 24L15 24L15 26L17 26L17 27L19 27L19 28L18 28L18 29L25 29L25 28L24 28L24 27L28 27L28 28L29 28L29 27L28 27L28 26L26 26L26 25L29 25L29 23L27 23L27 22L28 22L28 20L29 20L29 19L28 19L28 18L29 18L29 17L28 17L28 18L26 18L26 16L27 16L27 14L26 14L26 15L24 15L24 16L25 16L25 17L24 17L24 18L23 18L23 19L22 19L22 20L21 20L21 19L20 19L20 18L21 18L21 17L23 17L23 15L22 15L22 16L21 16L21 15L20 15L20 14L19 14L19 13L18 13L18 14L17 14L17 11L19 11L19 12L20 12L20 13L23 13L23 14L24 14L24 13L27 13L27 12L26 12L26 11L27 11L27 10L26 10L26 8L25 8L25 11L24 11L24 10L23 10L23 11L22 11L22 12L20 12L20 11L21 11L21 9L22 9L22 8L20 8L20 7L21 7L21 4L19 4L19 3L20 3L20 2L21 2L21 1L20 1L20 2L19 2L19 0L18 0L18 1L17 1L17 2L15 2L15 1L16 1L16 0L14 0L14 2L12 2L12 1L13 1L13 0ZM14 2L14 3L15 3L15 2ZM18 2L18 3L17 3L17 4L15 4L15 5L19 5L19 7L18 7L18 6L17 6L17 8L18 8L18 9L16 9L16 10L15 10L15 9L13 9L13 10L12 10L12 11L13 11L13 12L11 12L11 9L12 9L12 8L9 8L9 9L10 9L10 15L11 15L11 14L12 14L12 13L13 13L13 14L14 14L14 15L17 15L17 14L15 14L15 11L17 11L17 10L18 10L18 9L19 9L19 10L20 10L20 8L19 8L19 7L20 7L20 5L19 5L19 4L18 4L18 3L19 3L19 2ZM11 3L11 4L12 4L12 3ZM13 4L13 5L9 5L9 7L10 7L10 6L11 6L11 7L12 7L12 6L13 6L13 7L14 7L14 8L15 8L15 7L16 7L16 6L15 6L15 7L14 7L14 4ZM23 8L23 9L24 9L24 8ZM27 8L27 9L28 9L28 10L29 10L29 9L28 9L28 8ZM13 10L13 11L14 11L14 10ZM28 11L28 12L29 12L29 11ZM2 12L2 13L3 13L3 12ZM28 13L28 14L29 14L29 13ZM18 15L18 16L16 16L16 17L17 17L17 18L16 18L16 19L17 19L17 20L18 20L18 21L16 21L16 23L17 23L17 26L20 26L20 28L21 28L21 27L22 27L22 28L23 28L23 27L24 27L24 26L25 26L25 25L26 25L26 24L27 24L27 23L25 23L25 25L23 25L23 26L21 26L21 25L20 25L20 24L19 24L19 23L20 23L20 19L17 19L17 18L18 18L18 16L19 16L19 17L21 17L21 16L20 16L20 15ZM28 15L28 16L29 16L29 15ZM14 16L14 17L13 17L13 18L14 18L14 19L13 19L13 20L11 20L11 22L14 22L14 23L13 23L13 24L14 24L14 23L15 23L15 20L14 20L14 19L15 19L15 16ZM24 18L24 19L25 19L25 21L26 21L26 22L27 22L27 21L26 21L26 20L28 20L28 19L25 19L25 18ZM9 21L9 22L10 22L10 21ZM18 21L18 22L17 22L17 23L19 23L19 21ZM21 21L21 24L24 24L24 21ZM22 22L22 23L23 23L23 22ZM11 24L11 27L12 27L12 24ZM9 26L9 27L10 27L10 26ZM26 28L26 29L27 29L27 28ZM0 0L0 7L7 7L7 0ZM1 1L1 6L6 6L6 1ZM2 2L2 5L5 5L5 2ZM22 0L22 7L29 7L29 0ZM23 1L23 6L28 6L28 1ZM24 2L24 5L27 5L27 2ZM0 22L0 29L7 29L7 22ZM1 23L1 28L6 28L6 23ZM2 24L2 27L5 27L5 24Z" fill="#000000"/></g></g></svg>
