<?xml version="1.0" encoding="UTF-8"?>
<svg xmlns="http://www.w3.org/2000/svg" version="1.1" width="100" height="100" viewBox="0 0 100 100"><rect x="0" y="0" width="100" height="100" fill="#ffffff"/><g transform="scale(3.03)"><g transform="translate(0,0)"><path fill-rule="evenodd" d="M8 0L8 4L9 4L9 5L8 5L8 7L9 7L9 6L10 6L10 9L11 9L11 8L12 8L12 9L13 9L13 10L14 10L14 11L12 11L12 12L11 12L11 13L8 13L8 11L7 11L7 10L6 10L6 9L7 9L7 8L4 8L4 10L3 10L3 11L2 11L2 10L1 10L1 9L2 9L2 8L0 8L0 10L1 10L1 11L0 11L0 13L1 13L1 11L2 11L2 13L3 13L3 12L6 12L6 13L4 13L4 14L3 14L3 15L2 15L2 14L1 14L1 16L0 16L0 17L1 17L1 18L0 18L0 19L1 19L1 18L3 18L3 17L4 17L4 16L5 16L5 17L7 17L7 16L8 16L8 17L9 17L9 19L7 19L7 18L6 18L6 19L7 19L7 20L5 20L5 22L6 22L6 23L7 23L7 22L8 22L8 23L9 23L9 22L10 22L10 21L8 21L8 20L11 20L11 21L12 21L12 22L11 22L11 23L10 23L10 25L8 25L8 26L11 26L11 24L12 24L12 25L13 25L13 27L12 27L12 28L11 28L11 29L12 29L12 30L11 30L11 31L10 31L10 32L9 32L9 31L8 31L8 33L11 33L11 32L12 32L12 33L13 33L13 32L12 32L12 30L13 30L13 31L14 31L14 33L15 33L15 32L16 32L16 33L17 33L17 32L16 32L16 31L19 31L19 32L18 32L18 33L20 33L20 31L21 31L21 28L20 28L20 27L22 27L22 28L23 28L23 29L22 29L22 31L24 31L24 30L23 30L23 29L25 29L25 30L28 30L28 31L27 31L27 33L28 33L28 31L30 31L30 32L29 32L29 33L30 33L30 32L32 32L32 33L33 33L33 31L31 31L31 29L32 29L32 30L33 30L33 29L32 29L32 28L33 28L33 27L32 27L32 26L33 26L33 24L32 24L32 25L31 25L31 24L30 24L30 23L31 23L31 22L32 22L32 21L33 21L33 20L32 20L32 18L31 18L31 16L29 16L29 15L31 15L31 11L32 11L32 17L33 17L33 8L29 8L29 11L28 11L28 12L27 12L27 11L26 11L26 10L28 10L28 8L27 8L27 9L26 9L26 10L25 10L25 5L24 5L24 4L25 4L25 0L21 0L21 4L19 4L19 3L20 3L20 1L19 1L19 0L18 0L18 1L17 1L17 2L16 2L16 3L14 3L14 2L15 2L15 0L13 0L13 1L11 1L11 2L12 2L12 5L14 5L14 7L15 7L15 5L14 5L14 4L16 4L16 8L17 8L17 6L18 6L18 7L19 7L19 10L17 10L17 11L16 11L16 9L15 9L15 8L12 8L12 7L13 7L13 6L12 6L12 7L11 7L11 3L10 3L10 2L9 2L9 0ZM13 1L13 2L14 2L14 1ZM22 1L22 3L23 3L23 4L24 4L24 3L23 3L23 2L24 2L24 1ZM13 3L13 4L14 4L14 3ZM17 4L17 5L19 5L19 7L20 7L20 8L21 8L21 9L20 9L20 10L19 10L19 11L18 11L18 12L16 12L16 11L14 11L14 12L15 12L15 13L14 13L14 15L15 15L15 17L16 17L16 19L15 19L15 18L14 18L14 19L13 19L13 17L14 17L14 16L13 16L13 15L12 15L12 16L11 16L11 14L12 14L12 13L13 13L13 12L12 12L12 13L11 13L11 14L8 14L8 13L6 13L6 14L5 14L5 15L6 15L6 16L7 16L7 15L6 15L6 14L8 14L8 16L11 16L11 18L10 18L10 19L11 19L11 20L12 20L12 21L13 21L13 20L14 20L14 19L15 19L15 21L14 21L14 23L12 23L12 24L13 24L13 25L14 25L14 23L15 23L15 25L17 25L17 26L19 26L19 27L20 27L20 26L22 26L22 27L23 27L23 28L24 28L24 27L23 27L23 25L24 25L24 24L23 24L23 25L18 25L18 24L19 24L19 23L20 23L20 24L22 24L22 23L23 23L23 21L24 21L24 23L25 23L25 22L26 22L26 23L27 23L27 24L28 24L28 23L29 23L29 22L30 22L30 21L32 21L32 20L31 20L31 19L30 19L30 18L28 18L28 19L30 19L30 20L27 20L27 21L29 21L29 22L28 22L28 23L27 23L27 22L26 22L26 20L25 20L25 21L24 21L24 19L25 19L25 18L24 18L24 17L27 17L27 16L28 16L28 17L29 17L29 16L28 16L28 14L29 14L29 13L25 13L25 14L26 14L26 15L25 15L25 16L24 16L24 15L23 15L23 18L22 18L22 14L23 14L23 13L24 13L24 11L23 11L23 10L22 10L22 9L24 9L24 6L23 6L23 8L21 8L21 7L22 7L22 6L21 6L21 5L22 5L22 4L21 4L21 5L19 5L19 4ZM20 6L20 7L21 7L21 6ZM8 9L8 10L9 10L9 12L10 12L10 11L11 11L11 10L9 10L9 9ZM20 10L20 11L19 11L19 12L18 12L18 13L23 13L23 11L22 11L22 12L20 12L20 11L21 11L21 10ZM6 11L6 12L7 12L7 11ZM25 11L25 12L26 12L26 11ZM29 11L29 12L30 12L30 11ZM15 14L15 15L16 15L16 16L18 16L18 15L19 15L19 17L18 17L18 18L17 18L17 19L16 19L16 20L17 20L17 19L19 19L19 22L15 22L15 23L16 23L16 24L17 24L17 23L19 23L19 22L20 22L20 23L22 23L22 22L21 22L21 20L22 20L22 21L23 21L23 19L24 19L24 18L23 18L23 19L22 19L22 18L21 18L21 17L20 17L20 15L21 15L21 14L20 14L20 15L19 15L19 14L17 14L17 15L16 15L16 14ZM26 15L26 16L27 16L27 15ZM1 16L1 17L2 17L2 16ZM12 16L12 17L13 17L13 16ZM4 18L4 19L3 19L3 20L2 20L2 21L0 21L0 22L3 22L3 23L2 23L2 24L0 24L0 25L2 25L2 24L3 24L3 25L7 25L7 24L3 24L3 23L4 23L4 19L5 19L5 18ZM26 18L26 19L27 19L27 18ZM12 19L12 20L13 20L13 19ZM20 19L20 20L21 20L21 19ZM6 21L6 22L7 22L7 21ZM29 24L29 25L30 25L30 24ZM25 25L25 28L28 28L28 25ZM14 26L14 31L16 31L16 30L15 30L15 29L16 29L16 28L17 28L17 27L16 27L16 26ZM26 26L26 27L27 27L27 26ZM29 26L29 27L31 27L31 28L32 28L32 27L31 27L31 26ZM8 27L8 29L9 29L9 30L10 30L10 28L9 28L9 27ZM15 27L15 28L16 28L16 27ZM17 29L17 30L19 30L19 31L20 31L20 30L19 30L19 29ZM28 29L28 30L29 30L29 29ZM25 31L25 32L22 32L22 33L26 33L26 31ZM0 0L0 7L7 7L7 0ZM1 1L1 6L6 6L6 1ZM2 2L2 5L5 5L5 2ZM26 0L26 7L33 7L33 0ZM27 1L27 6L32 6L32 1ZM28 2L28 5L31 5L31 2ZM0 26L0 33L7 33L7 26ZM1 27L1 32L6 32L6 27ZM2 28L2 31L5 31L5 28Z" fill="#000000"/></g></g></svg>
