<?xml version="1.0" encoding="UTF-8"?>
<svg xmlns="http://www.w3.org/2000/svg" version="1.1" width="100" height="100" viewBox="0 0 100 100"><rect x="0" y="0" width="100" height="100" fill="#ffffff"/><g transform="scale(3.03)"><g transform="translate(0,0)"><path fill-rule="evenodd" d="M9 0L9 1L8 1L8 2L9 2L9 3L8 3L8 4L10 4L10 7L11 7L11 4L12 4L12 5L13 5L13 6L12 6L12 9L13 9L13 8L14 8L14 9L16 9L16 7L17 7L17 6L18 6L18 7L19 7L19 6L20 6L20 9L21 9L21 10L23 10L23 11L20 11L20 10L19 10L19 8L17 8L17 9L18 9L18 10L15 10L15 11L14 11L14 12L15 12L15 13L12 13L12 11L13 11L13 10L11 10L11 11L10 11L10 9L11 9L11 8L6 8L6 9L9 9L9 13L7 13L7 12L8 12L8 11L7 11L7 10L6 10L6 11L4 11L4 10L5 10L5 8L0 8L0 10L2 10L2 9L3 9L3 11L1 11L1 12L2 12L2 13L1 13L1 14L0 14L0 16L1 16L1 17L0 17L0 20L2 20L2 21L3 21L3 22L2 22L2 24L3 24L3 25L7 25L7 24L6 24L6 23L9 23L9 22L10 22L10 20L11 20L11 21L12 21L12 22L13 22L13 23L12 23L12 25L13 25L13 24L14 24L14 25L16 25L16 24L14 24L14 23L18 23L18 26L16 26L16 27L17 27L17 28L15 28L15 27L14 27L14 28L15 28L15 29L12 29L12 27L13 27L13 26L11 26L11 23L10 23L10 26L9 26L9 25L8 25L8 27L9 27L9 28L8 28L8 33L10 33L10 32L11 32L11 31L10 31L10 30L11 30L11 29L12 29L12 30L13 30L13 31L12 31L12 33L13 33L13 32L14 32L14 33L16 33L16 32L17 32L17 31L18 31L18 33L19 33L19 30L17 30L17 31L15 31L15 30L16 30L16 29L17 29L17 28L19 28L19 23L20 23L20 24L22 24L22 25L20 25L20 26L22 26L22 25L23 25L23 26L24 26L24 27L20 27L20 29L21 29L21 30L23 30L23 29L29 29L29 30L32 30L32 29L33 29L33 27L32 27L32 26L31 26L31 24L33 24L33 22L32 22L32 23L31 23L31 24L30 24L30 23L29 23L29 21L28 21L28 19L30 19L30 20L31 20L31 21L30 21L30 22L31 22L31 21L32 21L32 18L33 18L33 17L32 17L32 16L33 16L33 14L32 14L32 12L33 12L33 10L31 10L31 9L32 9L32 8L31 8L31 9L30 9L30 8L29 8L29 10L28 10L28 11L29 11L29 12L28 12L28 13L24 13L24 14L23 14L23 15L21 15L21 14L22 14L22 13L23 13L23 12L25 12L25 11L26 11L26 12L27 12L27 11L26 11L26 8L25 8L25 6L24 6L24 7L23 7L23 6L22 6L22 8L21 8L21 6L20 6L20 5L22 5L22 3L24 3L24 5L25 5L25 2L20 2L20 1L22 1L22 0L18 0L18 1L17 1L17 0L15 0L15 1L17 1L17 2L16 2L16 3L17 3L17 2L18 2L18 5L17 5L17 6L16 6L16 4L12 4L12 2L13 2L13 1L11 1L11 2L10 2L10 0ZM23 0L23 1L24 1L24 0ZM14 2L14 3L15 3L15 2ZM19 2L19 4L20 4L20 2ZM10 3L10 4L11 4L11 3ZM8 5L8 7L9 7L9 5ZM13 6L13 7L14 7L14 8L15 8L15 7L16 7L16 6L15 6L15 7L14 7L14 6ZM22 8L22 9L23 9L23 10L24 10L24 11L25 11L25 8ZM27 8L27 9L28 9L28 8ZM29 10L29 11L30 11L30 12L32 12L32 11L31 11L31 10ZM6 11L6 12L7 12L7 11ZM15 11L15 12L17 12L17 14L15 14L15 15L14 15L14 16L13 16L13 17L12 17L12 15L13 15L13 14L12 14L12 13L11 13L11 12L10 12L10 13L11 13L11 15L9 15L9 14L7 14L7 13L6 13L6 14L7 14L7 15L6 15L6 16L5 16L5 12L4 12L4 13L3 13L3 14L1 14L1 15L3 15L3 16L2 16L2 17L3 17L3 18L1 18L1 19L2 19L2 20L4 20L4 21L5 21L5 22L3 22L3 23L5 23L5 22L8 22L8 20L10 20L10 19L11 19L11 18L13 18L13 19L12 19L12 21L15 21L15 20L17 20L17 21L16 21L16 22L18 22L18 21L19 21L19 22L20 22L20 23L23 23L23 25L24 25L24 24L25 24L25 23L24 23L24 22L25 22L25 21L24 21L24 20L25 20L25 19L23 19L23 17L24 17L24 18L26 18L26 19L27 19L27 18L28 18L28 17L29 17L29 15L31 15L31 16L32 16L32 14L29 14L29 13L28 13L28 14L26 14L26 15L23 15L23 17L22 17L22 18L21 18L21 17L20 17L20 14L21 14L21 13L22 13L22 12L21 12L21 13L20 13L20 11ZM18 12L18 14L17 14L17 15L19 15L19 14L20 14L20 13L19 13L19 12ZM7 15L7 16L6 16L6 17L9 17L9 18L8 18L8 19L9 19L9 18L10 18L10 17L11 17L11 16L10 16L10 17L9 17L9 15ZM26 15L26 16L24 16L24 17L27 17L27 15ZM3 16L3 17L4 17L4 18L3 18L3 19L4 19L4 20L6 20L6 21L7 21L7 20L6 20L6 19L7 19L7 18L5 18L5 16ZM14 16L14 17L15 17L15 19L14 19L14 20L15 20L15 19L20 19L20 22L22 22L22 20L23 20L23 19L22 19L22 20L21 20L21 19L20 19L20 18L19 18L19 16ZM16 17L16 18L18 18L18 17ZM4 18L4 19L5 19L5 18ZM30 18L30 19L31 19L31 18ZM26 20L26 23L27 23L27 24L29 24L29 23L27 23L27 22L28 22L28 21L27 21L27 20ZM0 21L0 25L1 25L1 21ZM25 25L25 28L28 28L28 25ZM26 26L26 27L27 27L27 26ZM10 27L10 29L9 29L9 30L10 30L10 29L11 29L11 27ZM29 27L29 28L31 28L31 29L32 29L32 27ZM24 30L24 31L23 31L23 32L21 32L21 31L20 31L20 33L25 33L25 32L26 32L26 33L27 33L27 32L29 32L29 33L30 33L30 31L27 31L27 32L26 32L26 31L25 31L25 30ZM9 31L9 32L10 32L10 31ZM14 31L14 32L15 32L15 31ZM31 31L31 33L32 33L32 32L33 32L33 31ZM0 0L0 7L7 7L7 0ZM1 1L1 6L6 6L6 1ZM2 2L2 5L5 5L5 2ZM26 0L26 7L33 7L33 0ZM27 1L27 6L32 6L32 1ZM28 2L28 5L31 5L31 2ZM0 26L0 33L7 33L7 26ZM1 27L1 32L6 32L6 27ZM2 28L2 31L5 31L5 28Z" fill="#000000"/></g></g></svg>
