<?xml version="1.0" encoding="UTF-8"?>
<svg xmlns="http://www.w3.org/2000/svg" version="1.1" width="100" height="100" viewBox="0 0 100 100"><rect x="0" y="0" width="100" height="100" fill="#ffffff"/><g transform="scale(3.03)"><g transform="translate(0,0)"><path fill-rule="evenodd" d="M8 0L8 4L10 4L10 3L11 3L11 4L12 4L12 2L11 2L11 0ZM12 0L12 1L14 1L14 3L13 3L13 5L11 5L11 6L10 6L10 7L9 7L9 5L8 5L8 7L9 7L9 8L10 8L10 7L11 7L11 6L12 6L12 8L11 8L11 9L7 9L7 8L4 8L4 9L5 9L5 11L4 11L4 10L3 10L3 9L2 9L2 8L0 8L0 9L2 9L2 10L0 10L0 14L1 14L1 15L0 15L0 18L2 18L2 19L1 19L1 20L5 20L5 21L4 21L4 22L3 22L3 21L2 21L2 22L3 22L3 24L0 24L0 25L4 25L4 24L6 24L6 25L8 25L8 26L9 26L9 27L8 27L8 29L9 29L9 27L11 27L11 28L10 28L10 29L11 29L11 28L12 28L12 29L13 29L13 30L15 30L15 31L14 31L14 32L13 32L13 31L12 31L12 32L11 32L11 31L10 31L10 30L9 30L9 31L8 31L8 33L9 33L9 32L10 32L10 33L12 33L12 32L13 32L13 33L15 33L15 31L16 31L16 32L19 32L19 33L21 33L21 32L20 32L20 31L21 31L21 30L20 30L20 31L17 31L17 30L15 30L15 29L14 29L14 27L15 27L15 26L13 26L13 25L15 25L15 23L16 23L16 28L17 28L17 29L18 29L18 30L19 30L19 29L21 29L21 28L22 28L22 29L23 29L23 30L22 30L22 31L24 31L24 33L28 33L28 32L27 32L27 31L31 31L31 32L29 32L29 33L31 33L31 32L32 32L32 33L33 33L33 31L31 31L31 29L32 29L32 30L33 30L33 29L32 29L32 28L33 28L33 27L32 27L32 26L33 26L33 22L32 22L32 23L31 23L31 21L30 21L30 19L31 19L31 17L30 17L30 16L31 16L31 12L32 12L32 14L33 14L33 11L31 11L31 10L32 10L32 9L33 9L33 8L29 8L29 10L28 10L28 8L27 8L27 11L26 11L26 9L25 9L25 5L24 5L24 3L25 3L25 0L24 0L24 1L23 1L23 0L22 0L22 1L21 1L21 0L20 0L20 1L19 1L19 2L20 2L20 4L19 4L19 5L20 5L20 8L19 8L19 10L17 10L17 11L16 11L16 9L18 9L18 8L17 8L17 4L18 4L18 3L17 3L17 2L16 2L16 1L17 1L17 0L16 0L16 1L14 1L14 0ZM20 1L20 2L21 2L21 3L22 3L22 4L21 4L21 5L22 5L22 6L21 6L21 7L22 7L22 8L20 8L20 11L17 11L17 12L16 12L16 11L14 11L14 13L16 13L16 14L13 14L13 13L12 13L12 12L13 12L13 11L12 11L12 12L11 12L11 13L10 13L10 11L11 11L11 10L12 10L12 9L13 9L13 10L14 10L14 9L13 9L13 8L15 8L15 9L16 9L16 4L15 4L15 3L16 3L16 2L15 2L15 3L14 3L14 4L15 4L15 7L14 7L14 6L13 6L13 8L12 8L12 9L11 9L11 10L8 10L8 11L9 11L9 13L8 13L8 12L7 12L7 11L5 11L5 13L2 13L2 11L1 11L1 13L2 13L2 15L3 15L3 14L4 14L4 15L5 15L5 16L8 16L8 17L5 17L5 18L4 18L4 17L3 17L3 16L1 16L1 17L2 17L2 18L4 18L4 19L5 19L5 20L7 20L7 21L6 21L6 22L5 22L5 23L6 23L6 24L7 24L7 23L8 23L8 24L9 24L9 25L10 25L10 23L11 23L11 24L12 24L12 25L11 25L11 26L12 26L12 25L13 25L13 24L14 24L14 23L15 23L15 22L17 22L17 23L19 23L19 22L18 22L18 21L17 21L17 19L19 19L19 20L20 20L20 26L18 26L18 24L17 24L17 27L20 27L20 28L21 28L21 27L22 27L22 28L23 28L23 29L24 29L24 30L28 30L28 29L24 29L24 28L23 28L23 27L22 27L22 26L23 26L23 25L24 25L24 23L25 23L25 24L26 24L26 23L27 23L27 24L28 24L28 23L29 23L29 24L30 24L30 23L29 23L29 22L30 22L30 21L29 21L29 20L28 20L28 19L30 19L30 18L28 18L28 16L27 16L27 17L26 17L26 19L27 19L27 20L28 20L28 23L27 23L27 21L26 21L26 23L25 23L25 22L24 22L24 21L25 21L25 20L24 20L24 19L25 19L25 17L24 17L24 16L25 16L25 14L26 14L26 15L27 15L27 14L26 14L26 13L25 13L25 12L26 12L26 11L25 11L25 9L24 9L24 8L23 8L23 7L24 7L24 6L23 6L23 5L22 5L22 4L23 4L23 1L22 1L22 2L21 2L21 1ZM9 2L9 3L10 3L10 2ZM18 6L18 7L19 7L19 6ZM22 6L22 7L23 7L23 6ZM6 9L6 10L7 10L7 9ZM22 10L22 11L20 11L20 12L19 12L19 13L18 13L18 12L17 12L17 13L18 13L18 14L20 14L20 13L23 13L23 12L25 12L25 11L24 11L24 10ZM3 11L3 12L4 12L4 11ZM22 11L22 12L23 12L23 11ZM27 11L27 12L28 12L28 13L30 13L30 11L29 11L29 12L28 12L28 11ZM6 12L6 13L7 13L7 12ZM9 13L9 14L5 14L5 15L9 15L9 16L10 16L10 13ZM22 14L22 15L20 15L20 16L18 16L18 15L16 15L16 17L17 17L17 16L18 16L18 18L21 18L21 17L20 17L20 16L22 16L22 15L23 15L23 14ZM28 14L28 15L29 15L29 16L30 16L30 15L29 15L29 14ZM12 15L12 16L11 16L11 17L12 17L12 18L9 18L9 19L8 19L8 20L9 20L9 19L11 19L11 20L10 20L10 21L7 21L7 22L6 22L6 23L7 23L7 22L9 22L9 23L10 23L10 22L11 22L11 20L12 20L12 21L13 21L13 22L15 22L15 21L14 21L14 19L15 19L15 20L16 20L16 19L17 19L17 18L16 18L16 19L15 19L15 18L13 18L13 17L15 17L15 15L14 15L14 16L13 16L13 15ZM32 15L32 17L33 17L33 15ZM12 16L12 17L13 17L13 16ZM23 17L23 18L22 18L22 19L23 19L23 18L24 18L24 17ZM5 18L5 19L7 19L7 18ZM12 19L12 20L13 20L13 19ZM20 19L20 20L21 20L21 19ZM32 20L32 21L33 21L33 20ZM0 21L0 22L1 22L1 21ZM22 21L22 23L21 23L21 25L23 25L23 24L22 24L22 23L24 23L24 22L23 22L23 21ZM12 23L12 24L13 24L13 23ZM25 25L25 28L28 28L28 25ZM20 26L20 27L21 27L21 26ZM26 26L26 27L27 27L27 26ZM29 26L29 27L30 27L30 28L29 28L29 29L30 29L30 28L32 28L32 27L31 27L31 26ZM12 27L12 28L13 28L13 27ZM0 0L0 7L7 7L7 0ZM1 1L1 6L6 6L6 1ZM2 2L2 5L5 5L5 2ZM26 0L26 7L33 7L33 0ZM27 1L27 6L32 6L32 1ZM28 2L28 5L31 5L31 2ZM0 26L0 33L7 33L7 26ZM1 27L1 32L6 32L6 27ZM2 28L2 31L5 31L5 28Z" fill="#000000"/></g></g></svg>
