<?xml version="1.0" encoding="UTF-8"?>
<svg xmlns="http://www.w3.org/2000/svg" version="1.1" width="100" height="100" viewBox="0 0 100 100"><rect x="0" y="0" width="100" height="100" fill="#ffffff"/><g transform="scale(3.448)"><g transform="translate(0,0)"><path fill-rule="evenodd" d="M10 0L10 2L9 2L9 1L8 1L8 3L9 3L9 4L8 4L8 8L6 8L6 9L5 9L5 10L4 10L4 8L3 8L3 9L2 9L2 8L0 8L0 10L2 10L2 11L3 11L3 12L2 12L2 13L0 13L0 14L3 14L3 15L2 15L2 17L1 17L1 18L0 18L0 19L1 19L1 18L2 18L2 19L3 19L3 18L5 18L5 19L4 19L4 21L5 21L5 19L8 19L8 20L6 20L6 21L8 21L8 23L10 23L10 24L9 24L9 25L8 25L8 26L9 26L9 27L8 27L8 29L9 29L9 28L10 28L10 27L11 27L11 28L14 28L14 29L15 29L15 26L18 26L18 27L17 27L17 28L18 28L18 29L19 29L19 27L20 27L20 26L21 26L21 28L22 28L22 29L25 29L25 28L22 28L22 27L25 27L25 24L29 24L29 23L28 23L28 21L29 21L29 20L28 20L28 21L27 21L27 23L25 23L25 21L26 21L26 19L25 19L25 20L22 20L22 19L24 19L24 17L25 17L25 16L23 16L23 15L24 15L24 11L22 11L22 9L24 9L24 10L25 10L25 11L26 11L26 10L25 10L25 8L22 8L22 9L18 9L18 8L17 8L17 6L18 6L18 7L19 7L19 8L21 8L21 6L20 6L20 4L21 4L21 0L20 0L20 2L19 2L19 0L18 0L18 2L16 2L16 1L15 1L15 2L14 2L14 1L13 1L13 0L12 0L12 3L11 3L11 0ZM13 2L13 3L14 3L14 5L13 5L13 7L12 7L12 4L11 4L11 5L10 5L10 4L9 4L9 7L10 7L10 8L13 8L13 9L11 9L11 10L9 10L9 8L8 8L8 10L9 10L9 11L10 11L10 12L8 12L8 11L6 11L6 10L7 10L7 9L6 9L6 10L5 10L5 12L3 12L3 14L5 14L5 12L7 12L7 13L6 13L6 14L7 14L7 13L10 13L10 12L11 12L11 13L12 13L12 14L13 14L13 15L11 15L11 14L10 14L10 15L9 15L9 16L10 16L10 17L9 17L9 18L8 18L8 15L6 15L6 16L7 16L7 17L6 17L6 18L8 18L8 19L9 19L9 18L10 18L10 19L11 19L11 18L10 18L10 17L12 17L12 16L13 16L13 15L14 15L14 17L15 17L15 18L13 18L13 19L14 19L14 20L12 20L12 21L10 21L10 20L8 20L8 21L10 21L10 23L11 23L11 24L10 24L10 25L9 25L9 26L11 26L11 27L12 27L12 26L13 26L13 27L14 27L14 23L15 23L15 25L16 25L16 24L17 24L17 25L20 25L20 24L17 24L17 23L15 23L15 22L14 22L14 23L13 23L13 24L12 24L12 23L11 23L11 22L12 22L12 21L14 21L14 20L15 20L15 21L16 21L16 22L17 22L17 20L19 20L19 23L20 23L20 20L19 20L19 19L21 19L21 17L22 17L22 18L23 18L23 16L22 16L22 15L21 15L21 14L22 14L22 13L21 13L21 12L22 12L22 11L20 11L20 10L17 10L17 9L16 9L16 6L15 6L15 7L14 7L14 5L15 5L15 3L14 3L14 2ZM16 3L16 4L17 4L17 5L18 5L18 6L19 6L19 7L20 7L20 6L19 6L19 4L17 4L17 3ZM10 6L10 7L11 7L11 6ZM13 7L13 8L14 8L14 9L13 9L13 12L12 12L12 10L11 10L11 12L12 12L12 13L13 13L13 12L14 12L14 15L15 15L15 14L16 14L16 13L17 13L17 15L18 15L18 13L17 13L17 12L16 12L16 13L15 13L15 11L17 11L17 10L16 10L16 9L15 9L15 8L14 8L14 7ZM26 8L26 9L28 9L28 8ZM3 10L3 11L4 11L4 10ZM14 10L14 11L15 11L15 10ZM28 10L28 11L27 11L27 12L26 12L26 13L25 13L25 14L26 14L26 18L27 18L27 17L28 17L28 19L29 19L29 17L28 17L28 16L29 16L29 14L26 14L26 13L29 13L29 10ZM19 13L19 14L20 14L20 13ZM0 15L0 16L1 16L1 15ZM3 15L3 16L5 16L5 15ZM20 15L20 16L19 16L19 18L20 18L20 16L21 16L21 15ZM27 15L27 16L28 16L28 15ZM17 16L17 17L16 17L16 18L17 18L17 17L18 17L18 16ZM2 17L2 18L3 18L3 17ZM16 19L16 20L17 20L17 19ZM0 20L0 21L1 21L1 20ZM2 20L2 21L3 21L3 20ZM21 21L21 24L24 24L24 21ZM22 22L22 23L23 23L23 22ZM11 25L11 26L12 26L12 25ZM21 25L21 26L22 26L22 25ZM23 25L23 26L24 26L24 25ZM28 25L28 28L27 28L27 26L26 26L26 29L28 29L28 28L29 28L29 25ZM0 0L0 7L7 7L7 0ZM1 1L1 6L6 6L6 1ZM2 2L2 5L5 5L5 2ZM22 0L22 7L29 7L29 0ZM23 1L23 6L28 6L28 1ZM24 2L24 5L27 5L27 2ZM0 22L0 29L7 29L7 22ZM1 23L1 28L6 28L6 23ZM2 24L2 27L5 27L5 24Z" fill="#000000"/></g></g></svg>
