<?xml version="1.0" encoding="UTF-8"?>
<svg xmlns="http://www.w3.org/2000/svg" version="1.1" width="100" height="100" viewBox="0 0 100 100"><rect x="0" y="0" width="100" height="100" fill="#ffffff"/><g transform="scale(3.448)"><g transform="translate(0,0)"><path fill-rule="evenodd" d="M9 0L9 1L8 1L8 2L9 2L9 3L8 3L8 4L10 4L10 7L11 7L11 4L12 4L12 5L13 5L13 6L12 6L12 9L16 9L16 10L17 10L17 11L15 11L15 12L14 12L14 10L11 10L11 11L10 11L10 9L11 9L11 8L6 8L6 9L7 9L7 10L4 10L4 9L5 9L5 8L0 8L0 11L1 11L1 9L3 9L3 10L2 10L2 12L3 12L3 13L2 13L2 14L1 14L1 12L0 12L0 14L1 14L1 15L2 15L2 14L4 14L4 15L5 15L5 14L6 14L6 15L7 15L7 16L6 16L6 17L5 17L5 19L2 19L2 21L3 21L3 20L5 20L5 21L7 21L7 20L6 20L6 19L7 19L7 18L6 18L6 17L8 17L8 18L9 18L9 16L10 16L10 17L11 17L11 15L9 15L9 16L8 16L8 14L9 14L9 13L10 13L10 14L11 14L11 13L12 13L12 14L13 14L13 15L12 15L12 17L14 17L14 18L15 18L15 22L14 22L14 21L12 21L12 19L13 19L13 18L11 18L11 19L10 19L10 20L11 20L11 21L12 21L12 22L13 22L13 23L12 23L12 25L13 25L13 24L14 24L14 25L15 25L15 26L17 26L17 23L15 23L15 22L16 22L16 21L17 21L17 20L20 20L20 21L19 21L19 22L20 22L20 24L19 24L19 23L18 23L18 25L23 25L23 26L24 26L24 27L25 27L25 26L26 26L26 27L28 27L28 28L29 28L29 27L28 27L28 26L26 26L26 24L27 24L27 25L29 25L29 23L27 23L27 22L28 22L28 20L29 20L29 19L27 19L27 18L26 18L26 17L27 17L27 16L25 16L25 15L28 15L28 16L29 16L29 15L28 15L28 14L29 14L29 13L28 13L28 14L26 14L26 13L27 13L27 12L25 12L25 11L28 11L28 12L29 12L29 11L28 11L28 10L29 10L29 9L28 9L28 8L27 8L27 9L28 9L28 10L26 10L26 8L25 8L25 9L24 9L24 8L23 8L23 9L24 9L24 10L25 10L25 11L21 11L21 10L20 10L20 11L19 11L19 10L17 10L17 9L19 9L19 8L20 8L20 9L22 9L22 8L20 8L20 7L21 7L21 3L20 3L20 2L21 2L21 1L17 1L17 2L19 2L19 3L17 3L17 4L16 4L16 3L15 3L15 2L16 2L16 0L15 0L15 2L14 2L14 1L11 1L11 2L10 2L10 0ZM12 2L12 4L13 4L13 5L14 5L14 6L13 6L13 8L14 8L14 6L15 6L15 7L16 7L16 6L17 6L17 8L19 8L19 7L20 7L20 3L19 3L19 4L17 4L17 5L16 5L16 4L15 4L15 3L14 3L14 4L13 4L13 2ZM10 3L10 4L11 4L11 3ZM8 5L8 7L9 7L9 5ZM17 5L17 6L18 6L18 7L19 7L19 5ZM8 9L8 10L9 10L9 9ZM3 10L3 12L4 12L4 14L5 14L5 12L7 12L7 13L6 13L6 14L7 14L7 13L9 13L9 11L4 11L4 10ZM12 11L12 13L13 13L13 14L14 14L14 15L13 15L13 16L14 16L14 17L15 17L15 18L18 18L18 16L19 16L19 18L20 18L20 16L21 16L21 19L20 19L20 20L21 20L21 19L22 19L22 20L24 20L24 19L25 19L25 20L27 20L27 19L25 19L25 17L24 17L24 18L23 18L23 17L22 17L22 16L21 16L21 15L20 15L20 14L19 14L19 15L18 15L18 16L17 16L17 17L15 17L15 16L14 16L14 15L17 15L17 14L18 14L18 13L16 13L16 14L14 14L14 12L13 12L13 11ZM17 11L17 12L19 12L19 13L20 13L20 12L21 12L21 11L20 11L20 12L19 12L19 11ZM10 12L10 13L11 13L11 12ZM22 12L22 13L21 13L21 14L22 14L22 15L25 15L25 14L24 14L24 13L23 13L23 12ZM19 15L19 16L20 16L20 15ZM2 16L2 17L0 17L0 21L1 21L1 18L2 18L2 17L3 17L3 18L4 18L4 16ZM28 17L28 18L29 18L29 17ZM8 21L8 23L9 23L9 24L8 24L8 29L12 29L12 27L13 27L13 26L11 26L11 24L10 24L10 23L11 23L11 22L10 22L10 23L9 23L9 21ZM21 21L21 24L24 24L24 21ZM25 21L25 23L26 23L26 22L27 22L27 21ZM22 22L22 23L23 23L23 22ZM14 23L14 24L15 24L15 23ZM9 24L9 26L10 26L10 27L9 27L9 28L11 28L11 26L10 26L10 24ZM19 26L19 27L18 27L18 28L19 28L19 29L22 29L22 28L21 28L21 27L22 27L22 26L21 26L21 27L20 27L20 26ZM14 27L14 28L15 28L15 29L16 29L16 28L17 28L17 27ZM19 27L19 28L20 28L20 27ZM23 28L23 29L26 29L26 28ZM0 0L0 7L7 7L7 0ZM1 1L1 6L6 6L6 1ZM2 2L2 5L5 5L5 2ZM22 0L22 7L29 7L29 0ZM23 1L23 6L28 6L28 1ZM24 2L24 5L27 5L27 2ZM0 22L0 29L7 29L7 22ZM1 23L1 28L6 28L6 23ZM2 24L2 27L5 27L5 24Z" fill="#000000"/></g></g></svg>
