<?xml version="1.0" encoding="UTF-8"?>
<svg xmlns="http://www.w3.org/2000/svg" version="1.1" width="100" height="100" viewBox="0 0 100 100"><rect x="0" y="0" width="100" height="100" fill="#ffffff"/><g transform="scale(3.448)"><g transform="translate(0,0)"><path fill-rule="evenodd" d="M9 0L9 1L8 1L8 2L9 2L9 3L8 3L8 4L10 4L10 7L11 7L11 4L12 4L12 5L13 5L13 6L12 6L12 9L14 9L14 8L15 8L15 10L16 10L16 9L17 9L17 6L18 6L18 7L19 7L19 8L20 8L20 7L21 7L21 5L20 5L20 7L19 7L19 4L18 4L18 3L17 3L17 2L19 2L19 3L20 3L20 2L21 2L21 1L17 1L17 0L16 0L16 1L17 1L17 2L15 2L15 4L16 4L16 5L17 5L17 6L16 6L16 7L15 7L15 6L14 6L14 5L13 5L13 4L12 4L12 2L14 2L14 1L11 1L11 2L10 2L10 0ZM10 3L10 4L11 4L11 3ZM17 4L17 5L18 5L18 4ZM8 5L8 7L9 7L9 5ZM13 6L13 7L14 7L14 6ZM0 8L0 11L1 11L1 10L2 10L2 11L3 11L3 9L5 9L5 8ZM6 8L6 9L8 9L8 10L6 10L6 11L5 11L5 10L4 10L4 11L5 11L5 12L3 12L3 13L1 13L1 12L0 12L0 13L1 13L1 14L0 14L0 15L1 15L1 16L2 16L2 15L1 15L1 14L3 14L3 13L7 13L7 14L5 14L5 15L3 15L3 16L4 16L4 17L3 17L3 18L4 18L4 19L2 19L2 20L3 20L3 21L4 21L4 19L5 19L5 20L6 20L6 21L8 21L8 23L9 23L9 22L10 22L10 23L11 23L11 22L10 22L10 21L8 21L8 20L6 20L6 19L9 19L9 20L11 20L11 21L12 21L12 22L13 22L13 23L12 23L12 25L14 25L14 26L15 26L15 29L17 29L17 27L16 27L16 26L17 26L17 25L16 25L16 24L19 24L19 25L23 25L23 26L24 26L24 27L25 27L25 26L26 26L26 27L28 27L28 28L29 28L29 27L28 27L28 26L26 26L26 24L27 24L27 25L29 25L29 23L27 23L27 22L28 22L28 20L29 20L29 18L26 18L26 17L27 17L27 16L25 16L25 15L28 15L28 16L29 16L29 15L28 15L28 14L29 14L29 13L28 13L28 14L26 14L26 13L27 13L27 12L25 12L25 11L28 11L28 12L29 12L29 11L28 11L28 10L29 10L29 9L28 9L28 8L27 8L27 9L28 9L28 10L26 10L26 8L25 8L25 9L24 9L24 8L23 8L23 9L24 9L24 10L25 10L25 11L21 11L21 10L20 10L20 11L19 11L19 9L18 9L18 10L17 10L17 11L14 11L14 10L11 10L11 11L10 11L10 9L11 9L11 8ZM21 8L21 9L22 9L22 8ZM8 10L8 14L9 14L9 16L10 16L10 18L9 18L9 19L10 19L10 18L14 18L14 20L13 20L13 19L12 19L12 21L13 21L13 22L14 22L14 23L13 23L13 24L14 24L14 25L15 25L15 24L14 24L14 23L17 23L17 22L19 22L19 24L20 24L20 22L19 22L19 21L20 21L20 20L21 20L21 19L22 19L22 20L24 20L24 19L25 19L25 20L27 20L27 19L25 19L25 17L24 17L24 18L23 18L23 17L22 17L22 16L21 16L21 15L20 15L20 14L19 14L19 15L17 15L17 16L18 16L18 17L16 17L16 18L14 18L14 15L15 15L15 14L18 14L18 12L19 12L19 13L21 13L21 14L22 14L22 15L25 15L25 14L24 14L24 13L23 13L23 12L22 12L22 13L21 13L21 11L20 11L20 12L19 12L19 11L18 11L18 12L17 12L17 13L15 13L15 12L14 12L14 11L12 11L12 13L11 13L11 12L10 12L10 13L9 13L9 10ZM6 11L6 12L7 12L7 11ZM13 12L13 13L12 13L12 14L13 14L13 15L12 15L12 17L13 17L13 15L14 15L14 14L13 14L13 13L14 13L14 12ZM10 13L10 14L11 14L11 13ZM5 15L5 18L8 18L8 17L6 17L6 16L8 16L8 15ZM10 15L10 16L11 16L11 15ZM19 15L19 16L20 16L20 18L19 18L19 17L18 17L18 18L17 18L17 19L15 19L15 20L14 20L14 22L17 22L17 19L19 19L19 20L20 20L20 19L21 19L21 16L20 16L20 15ZM0 17L0 21L1 21L1 18L2 18L2 17ZM21 21L21 24L24 24L24 21ZM25 21L25 23L26 23L26 22L27 22L27 21ZM22 22L22 23L23 23L23 22ZM8 24L8 29L10 29L10 28L9 28L9 26L10 26L10 27L11 27L11 29L13 29L13 28L12 28L12 27L13 27L13 26L11 26L11 24ZM19 26L19 27L18 27L18 29L22 29L22 28L21 28L21 27L22 27L22 26L21 26L21 27L20 27L20 26ZM19 27L19 28L20 28L20 27ZM23 28L23 29L26 29L26 28ZM0 0L0 7L7 7L7 0ZM1 1L1 6L6 6L6 1ZM2 2L2 5L5 5L5 2ZM22 0L22 7L29 7L29 0ZM23 1L23 6L28 6L28 1ZM24 2L24 5L27 5L27 2ZM0 22L0 29L7 29L7 22ZM1 23L1 28L6 28L6 23ZM2 24L2 27L5 27L5 24Z" fill="#000000"/></g></g></svg>
